<mxfile host="Electron" modified="2023-05-27T17:15:33.129Z" agent="Mozilla/5.0 (Windows NT 10.0; Win64; x64) AppleWebKit/537.36 (KHTML, like Gecko) draw.io/21.1.2 Chrome/106.0.5249.199 Electron/21.4.3 Safari/537.36" etag="azcMtkLjRjU9LZNDbfeR" version="21.1.2" type="device">
  <diagram name="Page-1" id="iRtx6iVOKkTvdw6Xl1tW">
    <mxGraphModel dx="1206" dy="1917" grid="1" gridSize="10" guides="1" tooltips="1" connect="1" arrows="1" fold="1" page="1" pageScale="1" pageWidth="850" pageHeight="1100" math="0" shadow="0">
      <root>
        <mxCell id="0" />
        <mxCell id="1" parent="0" />
        <mxCell id="mapsuULHoiAgoTRXSvPn-34" style="edgeStyle=orthogonalEdgeStyle;rounded=0;orthogonalLoop=1;jettySize=auto;html=1;entryX=0.5;entryY=1;entryDx=0;entryDy=0;entryPerimeter=0;fontSize=15;endArrow=block;endFill=0;" parent="1" source="mapsuULHoiAgoTRXSvPn-1" target="mapsuULHoiAgoTRXSvPn-11" edge="1">
          <mxGeometry relative="1" as="geometry" />
        </mxCell>
        <mxCell id="mapsuULHoiAgoTRXSvPn-1" value="Camel" style="swimlane;fontStyle=1;align=center;verticalAlign=top;childLayout=stackLayout;horizontal=1;startSize=26;horizontalStack=0;resizeParent=1;resizeParentMax=0;resizeLast=0;collapsible=1;marginBottom=0;" parent="1" vertex="1">
          <mxGeometry x="170" y="310" width="160" height="60" as="geometry" />
        </mxCell>
        <mxCell id="mapsuULHoiAgoTRXSvPn-3" value="" style="line;strokeWidth=1;fillColor=none;align=left;verticalAlign=middle;spacingTop=-1;spacingLeft=3;spacingRight=3;rotatable=0;labelPosition=right;points=[];portConstraint=eastwest;strokeColor=inherit;" parent="mapsuULHoiAgoTRXSvPn-1" vertex="1">
          <mxGeometry y="26" width="160" height="8" as="geometry" />
        </mxCell>
        <mxCell id="mapsuULHoiAgoTRXSvPn-4" value="+run()" style="text;strokeColor=none;fillColor=none;align=left;verticalAlign=top;spacingLeft=4;spacingRight=4;overflow=hidden;rotatable=0;points=[[0,0.5],[1,0.5]];portConstraint=eastwest;" parent="mapsuULHoiAgoTRXSvPn-1" vertex="1">
          <mxGeometry y="34" width="160" height="26" as="geometry" />
        </mxCell>
        <mxCell id="mapsuULHoiAgoTRXSvPn-35" style="edgeStyle=orthogonalEdgeStyle;rounded=0;orthogonalLoop=1;jettySize=auto;html=1;entryX=0.5;entryY=1;entryDx=0;entryDy=0;entryPerimeter=0;fontSize=15;endArrow=block;endFill=0;" parent="1" source="mapsuULHoiAgoTRXSvPn-5" target="mapsuULHoiAgoTRXSvPn-15" edge="1">
          <mxGeometry relative="1" as="geometry" />
        </mxCell>
        <mxCell id="mapsuULHoiAgoTRXSvPn-5" value="Auto" style="swimlane;fontStyle=1;align=center;verticalAlign=top;childLayout=stackLayout;horizontal=1;startSize=26;horizontalStack=0;resizeParent=1;resizeParentMax=0;resizeLast=0;collapsible=1;marginBottom=0;" parent="1" vertex="1">
          <mxGeometry x="410" y="310" width="160" height="60" as="geometry" />
        </mxCell>
        <mxCell id="mapsuULHoiAgoTRXSvPn-6" value="" style="line;strokeWidth=1;fillColor=none;align=left;verticalAlign=middle;spacingTop=-1;spacingLeft=3;spacingRight=3;rotatable=0;labelPosition=right;points=[];portConstraint=eastwest;strokeColor=inherit;" parent="mapsuULHoiAgoTRXSvPn-5" vertex="1">
          <mxGeometry y="26" width="160" height="8" as="geometry" />
        </mxCell>
        <mxCell id="mapsuULHoiAgoTRXSvPn-7" value="+drive()" style="text;strokeColor=none;fillColor=none;align=left;verticalAlign=top;spacingLeft=4;spacingRight=4;overflow=hidden;rotatable=0;points=[[0,0.5],[1,0.5]];portConstraint=eastwest;" parent="mapsuULHoiAgoTRXSvPn-5" vertex="1">
          <mxGeometry y="34" width="160" height="26" as="geometry" />
        </mxCell>
        <mxCell id="mapsuULHoiAgoTRXSvPn-31" style="edgeStyle=orthogonalEdgeStyle;rounded=0;orthogonalLoop=1;jettySize=auto;html=1;entryX=-0.004;entryY=0.103;entryDx=0;entryDy=0;entryPerimeter=0;fontSize=15;endArrow=block;endFill=0;" parent="1" source="mapsuULHoiAgoTRXSvPn-8" target="mapsuULHoiAgoTRXSvPn-30" edge="1">
          <mxGeometry relative="1" as="geometry" />
        </mxCell>
        <mxCell id="mapsuULHoiAgoTRXSvPn-8" value="CamelAdapter" style="swimlane;fontStyle=1;align=center;verticalAlign=top;childLayout=stackLayout;horizontal=1;startSize=26;horizontalStack=0;resizeParent=1;resizeParentMax=0;resizeLast=0;collapsible=1;marginBottom=0;" parent="1" vertex="1">
          <mxGeometry x="170" y="200" width="160" height="60" as="geometry" />
        </mxCell>
        <mxCell id="mapsuULHoiAgoTRXSvPn-10" value="" style="line;strokeWidth=1;fillColor=none;align=left;verticalAlign=middle;spacingTop=-1;spacingLeft=3;spacingRight=3;rotatable=0;labelPosition=right;points=[];portConstraint=eastwest;strokeColor=inherit;" parent="mapsuULHoiAgoTRXSvPn-8" vertex="1">
          <mxGeometry y="26" width="160" height="8" as="geometry" />
        </mxCell>
        <mxCell id="mapsuULHoiAgoTRXSvPn-11" value="+ go()" style="text;strokeColor=none;fillColor=none;align=left;verticalAlign=top;spacingLeft=4;spacingRight=4;overflow=hidden;rotatable=0;points=[[0,0.5],[1,0.5]];portConstraint=eastwest;" parent="mapsuULHoiAgoTRXSvPn-8" vertex="1">
          <mxGeometry y="34" width="160" height="26" as="geometry" />
        </mxCell>
        <mxCell id="mapsuULHoiAgoTRXSvPn-32" style="edgeStyle=orthogonalEdgeStyle;rounded=0;orthogonalLoop=1;jettySize=auto;html=1;entryX=1.004;entryY=-0.154;entryDx=0;entryDy=0;entryPerimeter=0;fontSize=15;endArrow=block;endFill=0;" parent="1" source="mapsuULHoiAgoTRXSvPn-13" target="mapsuULHoiAgoTRXSvPn-30" edge="1">
          <mxGeometry relative="1" as="geometry" />
        </mxCell>
        <mxCell id="mapsuULHoiAgoTRXSvPn-13" value="AutoAdapter" style="swimlane;fontStyle=1;align=center;verticalAlign=top;childLayout=stackLayout;horizontal=1;startSize=26;horizontalStack=0;resizeParent=1;resizeParentMax=0;resizeLast=0;collapsible=1;marginBottom=0;" parent="1" vertex="1">
          <mxGeometry x="410" y="200" width="160" height="60" as="geometry" />
        </mxCell>
        <mxCell id="mapsuULHoiAgoTRXSvPn-14" value="" style="line;strokeWidth=1;fillColor=none;align=left;verticalAlign=middle;spacingTop=-1;spacingLeft=3;spacingRight=3;rotatable=0;labelPosition=right;points=[];portConstraint=eastwest;strokeColor=inherit;" parent="mapsuULHoiAgoTRXSvPn-13" vertex="1">
          <mxGeometry y="26" width="160" height="8" as="geometry" />
        </mxCell>
        <mxCell id="mapsuULHoiAgoTRXSvPn-15" value="+ go()" style="text;strokeColor=none;fillColor=none;align=left;verticalAlign=top;spacingLeft=4;spacingRight=4;overflow=hidden;rotatable=0;points=[[0,0.5],[1,0.5]];portConstraint=eastwest;" parent="mapsuULHoiAgoTRXSvPn-13" vertex="1">
          <mxGeometry y="34" width="160" height="26" as="geometry" />
        </mxCell>
        <mxCell id="mapsuULHoiAgoTRXSvPn-16" value="" style="group;" parent="1" vertex="1" connectable="0">
          <mxGeometry x="10" y="260" width="140" height="60" as="geometry" />
        </mxCell>
        <mxCell id="mapsuULHoiAgoTRXSvPn-17" value="" style="shape=note;whiteSpace=wrap;html=1;backgroundOutline=1;darkOpacity=0.05;fillColor=#f5f5f5;fontColor=#333333;strokeColor=#666666;" parent="mapsuULHoiAgoTRXSvPn-16" vertex="1">
          <mxGeometry width="140" height="60" as="geometry" />
        </mxCell>
        <mxCell id="mapsuULHoiAgoTRXSvPn-18" value="&lt;h1&gt;&lt;span style=&quot;font-weight: normal;&quot;&gt;&lt;font style=&quot;font-size: 15px;&quot;&gt;self.run()&lt;/font&gt;&lt;/span&gt;&lt;/h1&gt;" style="text;html=1;strokeColor=none;fillColor=none;spacing=5;spacingTop=-20;whiteSpace=wrap;overflow=hidden;rounded=0;" parent="mapsuULHoiAgoTRXSvPn-16" vertex="1">
          <mxGeometry x="3.7692307692307696" y="5.7391304347826075" width="123.84615384615384" height="52.17391304347826" as="geometry" />
        </mxCell>
        <mxCell id="mapsuULHoiAgoTRXSvPn-21" style="edgeStyle=orthogonalEdgeStyle;rounded=0;orthogonalLoop=1;jettySize=auto;html=1;entryX=-0.012;entryY=0.389;entryDx=0;entryDy=0;entryPerimeter=0;fontSize=15;dashed=1;" parent="1" target="mapsuULHoiAgoTRXSvPn-8" edge="1">
          <mxGeometry relative="1" as="geometry">
            <mxPoint x="80" y="250" as="sourcePoint" />
            <Array as="points">
              <mxPoint x="80" y="223" />
            </Array>
          </mxGeometry>
        </mxCell>
        <mxCell id="mapsuULHoiAgoTRXSvPn-23" value="" style="group" parent="1" vertex="1" connectable="0">
          <mxGeometry x="610" y="260" width="140" height="60" as="geometry" />
        </mxCell>
        <mxCell id="mapsuULHoiAgoTRXSvPn-24" value="" style="shape=note;whiteSpace=wrap;html=1;backgroundOutline=1;darkOpacity=0.05;fillColor=#f5f5f5;fontColor=#333333;strokeColor=#666666;" parent="mapsuULHoiAgoTRXSvPn-23" vertex="1">
          <mxGeometry width="140" height="60" as="geometry" />
        </mxCell>
        <mxCell id="mapsuULHoiAgoTRXSvPn-25" value="&lt;h1&gt;&lt;span style=&quot;font-weight: normal;&quot;&gt;&lt;font style=&quot;font-size: 15px;&quot;&gt;self.drive()&lt;/font&gt;&lt;/span&gt;&lt;/h1&gt;" style="text;html=1;strokeColor=none;fillColor=none;spacing=5;spacingTop=-20;whiteSpace=wrap;overflow=hidden;rounded=0;" parent="mapsuULHoiAgoTRXSvPn-23" vertex="1">
          <mxGeometry x="3.7692307692307696" y="5.7391304347826075" width="123.84615384615384" height="52.17391304347826" as="geometry" />
        </mxCell>
        <mxCell id="mapsuULHoiAgoTRXSvPn-26" style="edgeStyle=orthogonalEdgeStyle;rounded=0;orthogonalLoop=1;jettySize=auto;html=1;entryX=1;entryY=0.5;entryDx=0;entryDy=0;dashed=1;fontSize=15;exitX=0.5;exitY=0;exitDx=0;exitDy=0;exitPerimeter=0;" parent="1" source="mapsuULHoiAgoTRXSvPn-24" target="mapsuULHoiAgoTRXSvPn-13" edge="1">
          <mxGeometry relative="1" as="geometry" />
        </mxCell>
        <mxCell id="mapsuULHoiAgoTRXSvPn-27" value="TransportAdapter&#xa;" style="swimlane;fontStyle=1;align=center;verticalAlign=top;childLayout=stackLayout;horizontal=1;startSize=26;horizontalStack=0;resizeParent=1;resizeParentMax=0;resizeLast=0;collapsible=1;marginBottom=0;fontSize=15;" parent="1" vertex="1">
          <mxGeometry x="300" y="90" width="160" height="60" as="geometry" />
        </mxCell>
        <mxCell id="mapsuULHoiAgoTRXSvPn-29" value="" style="line;strokeWidth=1;fillColor=none;align=left;verticalAlign=middle;spacingTop=-1;spacingLeft=3;spacingRight=3;rotatable=0;labelPosition=right;points=[];portConstraint=eastwest;strokeColor=inherit;fontSize=15;" parent="mapsuULHoiAgoTRXSvPn-27" vertex="1">
          <mxGeometry y="26" width="160" height="8" as="geometry" />
        </mxCell>
        <mxCell id="mapsuULHoiAgoTRXSvPn-30" value="+ go()" style="text;strokeColor=none;fillColor=none;align=left;verticalAlign=top;spacingLeft=4;spacingRight=4;overflow=hidden;rotatable=0;points=[[0,0.5],[1,0.5]];portConstraint=eastwest;fontSize=15;" parent="mapsuULHoiAgoTRXSvPn-27" vertex="1">
          <mxGeometry y="34" width="160" height="26" as="geometry" />
        </mxCell>
        <mxCell id="mapsuULHoiAgoTRXSvPn-36" value="" style="group;fontSize=15;" parent="1" vertex="1" connectable="0">
          <mxGeometry x="580" y="10" width="220" height="140" as="geometry" />
        </mxCell>
        <mxCell id="mapsuULHoiAgoTRXSvPn-37" value="" style="shape=note;whiteSpace=wrap;html=1;backgroundOutline=1;darkOpacity=0.05;fontSize=15;fillColor=#f5f5f5;fontColor=#333333;strokeColor=#666666;" parent="mapsuULHoiAgoTRXSvPn-36" vertex="1">
          <mxGeometry width="220" height="140" as="geometry" />
        </mxCell>
        <mxCell id="mapsuULHoiAgoTRXSvPn-38" value="&lt;h1 style=&quot;&quot;&gt;&lt;span style=&quot;font-size: 15px; font-weight: 400;&quot;&gt;travel(t:TransportAdapter):&lt;/span&gt;&lt;/h1&gt;&lt;div&gt;&lt;span style=&quot;font-size: 15px; font-weight: 400;&quot;&gt;t.go()&lt;/span&gt;&lt;/div&gt;&lt;div&gt;&lt;span style=&quot;font-size: 15px; font-weight: 400;&quot;&gt;&lt;br&gt;&lt;/span&gt;&lt;/div&gt;" style="text;html=1;spacing=5;spacingTop=-20;whiteSpace=wrap;overflow=hidden;rounded=0;fontSize=15;" parent="mapsuULHoiAgoTRXSvPn-36" vertex="1">
          <mxGeometry x="5.923076923076923" y="13.391304347826088" width="194.6153846153846" height="121.73913043478262" as="geometry" />
        </mxCell>
        <mxCell id="mapsuULHoiAgoTRXSvPn-39" value="Driver" style="swimlane;fontStyle=1;align=center;verticalAlign=top;childLayout=stackLayout;horizontal=1;startSize=26;horizontalStack=0;resizeParent=1;resizeParentMax=0;resizeLast=0;collapsible=1;marginBottom=0;fontSize=15;" parent="1" vertex="1">
          <mxGeometry x="290" y="-40" width="200" height="60" as="geometry" />
        </mxCell>
        <mxCell id="mapsuULHoiAgoTRXSvPn-41" value="" style="line;strokeWidth=1;fillColor=none;align=left;verticalAlign=middle;spacingTop=-1;spacingLeft=3;spacingRight=3;rotatable=0;labelPosition=right;points=[];portConstraint=eastwest;strokeColor=inherit;fontSize=15;" parent="mapsuULHoiAgoTRXSvPn-39" vertex="1">
          <mxGeometry y="26" width="200" height="8" as="geometry" />
        </mxCell>
        <mxCell id="mapsuULHoiAgoTRXSvPn-42" value="+ travel(TransportAdapter)&#xa;" style="text;strokeColor=none;fillColor=none;align=left;verticalAlign=top;spacingLeft=4;spacingRight=4;overflow=hidden;rotatable=0;points=[[0,0.5],[1,0.5]];portConstraint=eastwest;fontSize=15;" parent="mapsuULHoiAgoTRXSvPn-39" vertex="1">
          <mxGeometry y="34" width="200" height="26" as="geometry" />
        </mxCell>
        <mxCell id="mapsuULHoiAgoTRXSvPn-44" value="Use" style="endArrow=open;endSize=12;dashed=1;html=1;rounded=0;dashPattern=1 2;fontSize=15;exitX=0.437;exitY=0.974;exitDx=0;exitDy=0;exitPerimeter=0;" parent="1" source="mapsuULHoiAgoTRXSvPn-42" edge="1">
          <mxGeometry width="160" relative="1" as="geometry">
            <mxPoint x="340" y="220" as="sourcePoint" />
            <mxPoint x="380" y="90" as="targetPoint" />
          </mxGeometry>
        </mxCell>
        <mxCell id="mapsuULHoiAgoTRXSvPn-47" style="edgeStyle=orthogonalEdgeStyle;rounded=0;orthogonalLoop=1;jettySize=auto;html=1;entryX=1;entryY=0.5;entryDx=0;entryDy=0;fontSize=15;endArrow=block;endFill=1;dashed=1;strokeWidth=1;exitX=0;exitY=0.214;exitDx=0;exitDy=0;exitPerimeter=0;" parent="1" source="mapsuULHoiAgoTRXSvPn-37" target="mapsuULHoiAgoTRXSvPn-42" edge="1">
          <mxGeometry relative="1" as="geometry" />
        </mxCell>
        <mxCell id="mapsuULHoiAgoTRXSvPn-48" value="" style="group;fontSize=15;" parent="1" vertex="1" connectable="0">
          <mxGeometry x="14" y="-280" width="256" height="190" as="geometry" />
        </mxCell>
        <mxCell id="mapsuULHoiAgoTRXSvPn-49" value="" style="shape=note;whiteSpace=wrap;html=1;backgroundOutline=1;darkOpacity=0.05;fontSize=15;fillColor=#f5f5f5;fontColor=#333333;strokeColor=#666666;" parent="mapsuULHoiAgoTRXSvPn-48" vertex="1">
          <mxGeometry width="256" height="190" as="geometry" />
        </mxCell>
        <mxCell id="mapsuULHoiAgoTRXSvPn-50" value="&lt;h1&gt;Client&lt;/h1&gt;&lt;p&gt;d = Driver()&lt;br&gt;&lt;span style=&quot;background-color: initial;&quot;&gt;auto = Auto()&lt;br&gt;&lt;/span&gt;&lt;span style=&quot;background-color: initial;&quot;&gt;d.travel(auto)&lt;br&gt;&lt;/span&gt;&lt;span style=&quot;background-color: initial;&quot;&gt;camel = Camel()&lt;br&gt;d.travel(camel)&lt;/span&gt;&lt;/p&gt;&lt;p&gt;&lt;br&gt;&lt;/p&gt;" style="text;html=1;strokeColor=none;fillColor=none;spacing=5;spacingTop=-20;whiteSpace=wrap;overflow=hidden;rounded=0;fontSize=15;" parent="mapsuULHoiAgoTRXSvPn-48" vertex="1">
          <mxGeometry x="6.892307692307693" y="18.17391304347826" width="226.46153846153848" height="165.2173913043478" as="geometry" />
        </mxCell>
        <mxCell id="mapsuULHoiAgoTRXSvPn-53" style="edgeStyle=orthogonalEdgeStyle;rounded=0;orthogonalLoop=1;jettySize=auto;html=1;entryX=0.35;entryY=0;entryDx=0;entryDy=0;entryPerimeter=0;dashed=1;strokeWidth=1;fontSize=15;endArrow=block;endFill=1;strokeColor=#7EA6E0;" parent="1" target="mapsuULHoiAgoTRXSvPn-39" edge="1">
          <mxGeometry relative="1" as="geometry">
            <mxPoint x="270" y="-180" as="sourcePoint" />
          </mxGeometry>
        </mxCell>
      </root>
    </mxGraphModel>
  </diagram>
</mxfile>
